<svg version="1.1" viewBox="0.0 0.0 993.0 503.0" fill="none" stroke="none" stroke-linecap="square" stroke-miterlimit="10" width="993" height="503" xmlns:xlink="http://www.w3.org/1999/xlink" xmlns="http://www.w3.org/2000/svg"><path fill="#ffffff" d="M0 0L993.0 0L993.0 503.0L0 503.0L0 0Z" fill-rule="nonzero"/><path stroke="#333333" stroke-width="1.0" stroke-linecap="butt" d="M68.5 402.5L967.5 402.5" fill-rule="nonzero"/><path stroke="#cccccc" stroke-width="1.0" stroke-linecap="butt" d="M68.5 309.5L967.5 309.5" fill-rule="nonzero"/><path stroke="#cccccc" stroke-width="1.0" stroke-linecap="butt" d="M68.5 217.5L967.5 217.5" fill-rule="nonzero"/><path stroke="#cccccc" stroke-width="1.0" stroke-linecap="butt" d="M68.5 125.5L967.5 125.5" fill-rule="nonzero"/><path stroke="#cccccc" stroke-width="1.0" stroke-linecap="butt" d="M68.5 33.5L967.5 33.5" fill-rule="nonzero"/><path stroke="#e6e6e6" stroke-width="1.0" stroke-linecap="butt" d="M68.5 371.5L967.5 371.5" fill-rule="nonzero"/><path stroke="#e6e6e6" stroke-width="1.0" stroke-linecap="butt" d="M68.5 340.5L967.5 340.5" fill-rule="nonzero"/><path stroke="#e6e6e6" stroke-width="1.0" stroke-linecap="butt" d="M68.5 279.5L967.5 279.5" fill-rule="nonzero"/><path stroke="#e6e6e6" stroke-width="1.0" stroke-linecap="butt" d="M68.5 248.5L967.5 248.5" fill-rule="nonzero"/><path stroke="#e6e6e6" stroke-width="1.0" stroke-linecap="butt" d="M68.5 186.5L967.5 186.5" fill-rule="nonzero"/><path stroke="#e6e6e6" stroke-width="1.0" stroke-linecap="butt" d="M68.5 156.5L967.5 156.5" fill-rule="nonzero"/><path stroke="#e6e6e6" stroke-width="1.0" stroke-linecap="butt" d="M68.5 94.5L967.5 94.5" fill-rule="nonzero"/><path stroke="#e6e6e6" stroke-width="1.0" stroke-linecap="butt" d="M68.5 63.5L967.5 63.5" fill-rule="nonzero"/><clipPath id="id_0"><path d="M68.15 33.15L967.85 33.15L967.85 402.08334L68.15 402.08334L68.15 33.15Z" clip-rule="nonzero"/></clipPath><path stroke="#000000" stroke-width="2.0" stroke-linecap="butt" stroke-opacity="0.0" clip-path="url(#id_0)" d="M337.0 402.0L162.0 402.0L162.0 174.0L337.0 174.0Z" fill-rule="nonzero"/><path fill="#93c47d" clip-path="url(#id_0)" d="M337.0 402.0L162.0 402.0L162.0 174.0L337.0 174.0Z" fill-rule="nonzero"/><path stroke="#000000" stroke-width="2.0" stroke-linecap="butt" stroke-opacity="0.0" clip-path="url(#id_0)" d="M606.0 402.0L431.0 402.0L431.0 235.0L606.0 235.0Z" fill-rule="nonzero"/><path fill="#93c47d" clip-path="url(#id_0)" d="M606.0 402.0L431.0 402.0L431.0 235.0L606.0 235.0Z" fill-rule="nonzero"/><path stroke="#000000" stroke-width="2.0" stroke-linecap="butt" stroke-opacity="0.0" clip-path="url(#id_0)" d="M875.0 402.0L700.0 402.0L700.0 218.0L875.0 218.0Z" fill-rule="nonzero"/><path fill="#93c47d" clip-path="url(#id_0)" d="M875.0 402.0L700.0 402.0L700.0 218.0L875.0 218.0Z" fill-rule="nonzero"/><path stroke="#000000" stroke-width="2.0" stroke-linecap="butt" stroke-opacity="0.0" clip-path="url(#id_0)" d="M337.0 174.0L162.0 174.0L162.0 147.0L337.0 147.0Z" fill-rule="nonzero"/><path fill="#f8db70" clip-path="url(#id_0)" d="M337.0 174.0L162.0 174.0L162.0 147.0L337.0 147.0Z" fill-rule="nonzero"/><path stroke="#000000" stroke-width="2.0" stroke-linecap="butt" stroke-opacity="0.0" clip-path="url(#id_0)" d="M606.0 235.0L431.0 235.0L431.0 218.0L606.0 218.0Z" fill-rule="nonzero"/><path fill="#f8db70" clip-path="url(#id_0)" d="M606.0 235.0L431.0 235.0L431.0 218.0L606.0 218.0Z" fill-rule="nonzero"/><path stroke="#000000" stroke-width="2.0" stroke-linecap="butt" stroke-opacity="0.0" clip-path="url(#id_0)" d="M875.0 218.0L700.0 218.0L700.0 218.0L875.0 218.0Z" fill-rule="nonzero"/><path fill="#f8db70" clip-path="url(#id_0)" d="M875.0 218.0L700.0 218.0L700.0 218.0L875.0 218.0Z" fill-rule="nonzero"/><path stroke="#000000" stroke-width="2.0" stroke-linecap="butt" stroke-opacity="0.0" clip-path="url(#id_0)" d="M337.0 147.0L162.0 147.0L162.0 35.0C162.0 33.89543 162.89543 33.0 164.0 33.0L335.0 33.0C336.10458 33.0 337.0 33.89543 337.0 35.0Z" fill-rule="nonzero"/><path fill="#cc0000" clip-path="url(#id_0)" d="M337.0 147.0L162.0 147.0L162.0 35.0C162.0 33.89543 162.89543 33.0 164.0 33.0L335.0 33.0C336.10458 33.0 337.0 33.89543 337.0 35.0Z" fill-rule="nonzero"/><path stroke="#000000" stroke-width="2.0" stroke-linecap="butt" stroke-opacity="0.0" clip-path="url(#id_0)" d="M606.0 218.0L431.0 218.0L431.0 35.0C431.0 33.89543 431.89542 33.0 433.0 33.0L604.0 33.0C605.10455 33.0 606.0 33.89543 606.0 35.0Z" fill-rule="nonzero"/><path fill="#cc0000" clip-path="url(#id_0)" d="M606.0 218.0L431.0 218.0L431.0 35.0C431.0 33.89543 431.89542 33.0 433.0 33.0L604.0 33.0C605.10455 33.0 606.0 33.89543 606.0 35.0Z" fill-rule="nonzero"/><path stroke="#000000" stroke-width="2.0" stroke-linecap="butt" stroke-opacity="0.0" clip-path="url(#id_0)" d="M875.0 218.0L700.0 218.0L700.0 35.0C700.0 33.89543 700.89545 33.0 702.0 33.0L873.0 33.0C874.10455 33.0 875.0 33.89543 875.0 35.0Z" fill-rule="nonzero"/><path fill="#cc0000" clip-path="url(#id_0)" d="M875.0 218.0L700.0 218.0L700.0 35.0C700.0 33.89543 700.89545 33.0 702.0 33.0L873.0 33.0C874.10455 33.0 875.0 33.89543 875.0 35.0Z" fill-rule="nonzero"/><path stroke="#93c47d" stroke-width="3.0" stroke-linejoin="round" stroke-linecap="round" d="M248.29688 190.49603L242.70312 190.49603L242.70312 189.71478L245.65625 186.43353Q246.3125 185.68353 246.5625 185.23041Q246.8125 184.76166 246.8125 184.26166Q246.8125 183.58978 246.40625 183.16791Q246.01562 182.73041 245.32812 182.73041Q244.53125 182.73041 244.07812 183.19916Q243.625 183.65228 243.625 184.48041L242.54688 184.48041Q242.54688 183.29291 243.29688 182.57416Q244.0625 181.83978 245.32812 181.83978Q246.53125 181.83978 247.21875 182.46478Q247.90625 183.08978 247.90625 184.13666Q247.90625 185.38666 246.29688 187.13666L244.01562 189.60541L248.29688 189.60541L248.29688 190.49603ZM253.96875 181.96478L253.96875 182.87103L253.76562 182.87103Q252.5 182.90228 251.75 183.63666Q251.0 184.35541 250.875 185.66791Q251.5625 184.90228 252.71875 184.90228Q253.82812 184.90228 254.5 185.68353Q255.17188 186.46478 255.17188 187.71478Q255.17188 189.02728 254.45312 189.82416Q253.73438 190.62103 252.51562 190.62103Q251.29688 190.62103 250.53125 189.68353Q249.78125 188.73041 249.78125 187.24603L249.78125 186.83978Q249.78125 184.48041 250.78125 183.23041Q251.78125 181.98041 253.76562 181.96478L253.96875 181.96478ZM252.54688 185.80853Q251.98438 185.80853 251.51562 186.13666Q251.04688 186.46478 250.85938 186.98041L250.85938 187.37103Q250.85938 188.43353 251.32812 189.07416Q251.8125 189.71478 252.51562 189.71478Q253.25 189.71478 253.67188 189.18353Q254.09375 188.63666 254.09375 187.76166Q254.09375 186.88666 253.67188 186.35541Q253.25 185.80853 252.54688 185.80853Z" fill-rule="nonzero"/><path fill="#000000" d="M248.29688 190.49603L242.70312 190.49603L242.70312 189.71478L245.65625 186.43353Q246.3125 185.68353 246.5625 185.23041Q246.8125 184.76166 246.8125 184.26166Q246.8125 183.58978 246.40625 183.16791Q246.01562 182.73041 245.32812 182.73041Q244.53125 182.73041 244.07812 183.19916Q243.625 183.65228 243.625 184.48041L242.54688 184.48041Q242.54688 183.29291 243.29688 182.57416Q244.0625 181.83978 245.32812 181.83978Q246.53125 181.83978 247.21875 182.46478Q247.90625 183.08978 247.90625 184.13666Q247.90625 185.38666 246.29688 187.13666L244.01562 189.60541L248.29688 189.60541L248.29688 190.49603ZM253.96875 181.96478L253.96875 182.87103L253.76562 182.87103Q252.5 182.90228 251.75 183.63666Q251.0 184.35541 250.875 185.66791Q251.5625 184.90228 252.71875 184.90228Q253.82812 184.90228 254.5 185.68353Q255.17188 186.46478 255.17188 187.71478Q255.17188 189.02728 254.45312 189.82416Q253.73438 190.62103 252.51562 190.62103Q251.29688 190.62103 250.53125 189.68353Q249.78125 188.73041 249.78125 187.24603L249.78125 186.83978Q249.78125 184.48041 250.78125 183.23041Q251.78125 181.98041 253.76562 181.96478L253.96875 181.96478ZM252.54688 185.80853Q251.98438 185.80853 251.51562 186.13666Q251.04688 186.46478 250.85938 186.98041L250.85938 187.37103Q250.85938 188.43353 251.32812 189.07416Q251.8125 189.71478 252.51562 189.71478Q253.25 189.71478 253.67188 189.18353Q254.09375 188.63666 254.09375 187.76166Q254.09375 186.88666 253.67188 186.35541Q253.25 185.80853 252.54688 185.80853Z" fill-rule="nonzero"/><path stroke="#93c47d" stroke-width="3.0" stroke-linejoin="round" stroke-linecap="round" d="M515.2656 251.98492L514.1875 251.98492L514.1875 244.76617L512.0 245.56305L512.0 244.57867L515.1094 243.4068L515.2656 243.4068L515.2656 251.98492ZM522.8594 248.23492Q522.53125 248.64117 522.0469 248.89117Q521.5781 249.12555 521.0156 249.12555Q520.28125 249.12555 519.7344 248.76617Q519.1875 248.4068 518.8906 247.75055Q518.59375 247.07867 518.59375 246.2818Q518.59375 245.43805 518.90625 244.75055Q519.2344 244.06305 519.8281 243.70367Q520.4375 243.32867 521.2344 243.32867Q522.5 243.32867 523.21875 244.2818Q523.9531 245.23492 523.9531 246.85992L523.9531 247.17242Q523.9531 249.67242 522.96875 250.81305Q521.9844 251.95367 520.0 251.98492L519.78125 251.98492L519.78125 251.07867L520.0156 251.07867Q521.3594 251.04742 522.0781 250.37555Q522.7969 249.70367 522.8594 248.23492ZM521.1875 248.23492Q521.7344 248.23492 522.1875 247.9068Q522.65625 247.56305 522.875 247.07867L522.875 246.64117Q522.875 245.57867 522.40625 244.9068Q521.9375 244.23492 521.2344 244.23492Q520.5156 244.23492 520.0781 244.7818Q519.65625 245.32867 519.65625 246.23492Q519.65625 247.10992 520.0625 247.67242Q520.4844 248.23492 521.1875 248.23492Z" fill-rule="nonzero"/><path fill="#000000" d="M515.2656 251.98492L514.1875 251.98492L514.1875 244.76617L512.0 245.56305L512.0 244.57867L515.1094 243.4068L515.2656 243.4068L515.2656 251.98492ZM522.8594 248.23492Q522.53125 248.64117 522.0469 248.89117Q521.5781 249.12555 521.0156 249.12555Q520.28125 249.12555 519.7344 248.76617Q519.1875 248.4068 518.8906 247.75055Q518.59375 247.07867 518.59375 246.2818Q518.59375 245.43805 518.90625 244.75055Q519.2344 244.06305 519.8281 243.70367Q520.4375 243.32867 521.2344 243.32867Q522.5 243.32867 523.21875 244.2818Q523.9531 245.23492 523.9531 246.85992L523.9531 247.17242Q523.9531 249.67242 522.96875 250.81305Q521.9844 251.95367 520.0 251.98492L519.78125 251.98492L519.78125 251.07867L520.0156 251.07867Q521.3594 251.04742 522.0781 250.37555Q522.7969 249.70367 522.8594 248.23492ZM521.1875 248.23492Q521.7344 248.23492 522.1875 247.9068Q522.65625 247.56305 522.875 247.07867L522.875 246.64117Q522.875 245.57867 522.40625 244.9068Q521.9375 244.23492 521.2344 244.23492Q520.5156 244.23492 520.0781 244.7818Q519.65625 245.32867 519.65625 246.23492Q519.65625 247.10992 520.0625 247.67242Q520.4844 248.23492 521.1875 248.23492Z" fill-rule="nonzero"/><path stroke="#93c47d" stroke-width="3.0" stroke-linejoin="round" stroke-linecap="round" d="M786.2969 234.41667L780.7031 234.41667L780.7031 233.63542L783.65625 230.35417Q784.3125 229.60417 784.5625 229.15105Q784.8125 228.6823 784.8125 228.1823Q784.8125 227.51042 784.40625 227.08855Q784.0156 226.65105 783.3281 226.65105Q782.53125 226.65105 782.0781 227.1198Q781.625 227.57292 781.625 228.40105L780.5469 228.40105Q780.5469 227.21355 781.2969 226.4948Q782.0625 225.76042 783.3281 225.76042Q784.53125 225.76042 785.21875 226.38542Q785.90625 227.01042 785.90625 228.0573Q785.90625 229.3073 784.2969 231.0573L782.0156 233.52605L786.2969 233.52605L786.2969 234.41667ZM791.2656 234.41667L790.1875 234.41667L790.1875 227.19792L788.0 227.9948L788.0 227.01042L791.1094 225.83855L791.2656 225.83855L791.2656 234.41667Z" fill-rule="nonzero"/><path fill="#000000" d="M786.2969 234.41667L780.7031 234.41667L780.7031 233.63542L783.65625 230.35417Q784.3125 229.60417 784.5625 229.15105Q784.8125 228.6823 784.8125 228.1823Q784.8125 227.51042 784.40625 227.08855Q784.0156 226.65105 783.3281 226.65105Q782.53125 226.65105 782.0781 227.1198Q781.625 227.57292 781.625 228.40105L780.5469 228.40105Q780.5469 227.21355 781.2969 226.4948Q782.0625 225.76042 783.3281 225.76042Q784.53125 225.76042 785.21875 226.38542Q785.90625 227.01042 785.90625 228.0573Q785.90625 229.3073 784.2969 231.0573L782.0156 233.52605L786.2969 233.52605L786.2969 234.41667ZM791.2656 234.41667L790.1875 234.41667L790.1875 227.19792L788.0 227.9948L788.0 227.01042L791.1094 225.83855L791.2656 225.83855L791.2656 234.41667Z" fill-rule="nonzero"/><path stroke="#f8db70" stroke-width="3.0" stroke-linejoin="round" stroke-linecap="round" d="M247.78125 159.34677L248.59375 159.34677Q249.375 159.33115 249.8125 158.94052Q250.25 158.5499 250.25 157.87802Q250.25 156.37802 248.75 156.37802Q248.04688 156.37802 247.625 156.78427Q247.21875 157.19052 247.21875 157.84677L246.125 157.84677Q246.125 156.83115 246.85938 156.15927Q247.60938 155.4874 248.75 155.4874Q249.95312 155.4874 250.64062 156.12802Q251.32812 156.76865 251.32812 157.90927Q251.32812 158.47177 250.96875 158.9874Q250.60938 159.50302 249.98438 159.76865Q250.6875 159.9874 251.0625 160.50302Q251.45312 161.01865 251.45312 161.76865Q251.45312 162.90927 250.70312 163.59677Q249.95312 164.26865 248.75 164.26865Q247.5625 164.26865 246.79688 163.6124Q246.04688 162.95615 246.04688 161.89365L247.14062 161.89365Q247.14062 162.56552 247.57812 162.97177Q248.01562 163.37802 248.76562 163.37802Q249.54688 163.37802 249.95312 162.97177Q250.375 162.5499 250.375 161.78427Q250.375 161.0499 249.92188 160.65927Q249.46875 160.25302 248.59375 160.2374L247.78125 160.2374L247.78125 159.34677Z" fill-rule="nonzero"/><path fill="#000000" d="M247.78125 159.34677L248.59375 159.34677Q249.375 159.33115 249.8125 158.94052Q250.25 158.5499 250.25 157.87802Q250.25 156.37802 248.75 156.37802Q248.04688 156.37802 247.625 156.78427Q247.21875 157.19052 247.21875 157.84677L246.125 157.84677Q246.125 156.83115 246.85938 156.15927Q247.60938 155.4874 248.75 155.4874Q249.95312 155.4874 250.64062 156.12802Q251.32812 156.76865 251.32812 157.90927Q251.32812 158.47177 250.96875 158.9874Q250.60938 159.50302 249.98438 159.76865Q250.6875 159.9874 251.0625 160.50302Q251.45312 161.01865 251.45312 161.76865Q251.45312 162.90927 250.70312 163.59677Q249.95312 164.26865 248.75 164.26865Q247.5625 164.26865 246.79688 163.6124Q246.04688 162.95615 246.04688 161.89365L247.14062 161.89365Q247.14062 162.56552 247.57812 162.97177Q248.01562 163.37802 248.76562 163.37802Q249.54688 163.37802 249.95312 162.97177Q250.375 162.5499 250.375 161.78427Q250.375 161.0499 249.92188 160.65927Q249.46875 160.25302 248.59375 160.2374L247.78125 160.2374L247.78125 159.34677Z" fill-rule="nonzero"/><path stroke="#f8db70" stroke-width="3.0" stroke-linejoin="round" stroke-linecap="round" d="M520.7969 230.90079L515.2031 230.90079L515.2031 230.11954L518.15625 226.83829Q518.8125 226.08829 519.0625 225.63516Q519.3125 225.16641 519.3125 224.66641Q519.3125 223.99454 518.90625 223.57266Q518.5156 223.13516 517.8281 223.13516Q517.03125 223.13516 516.5781 223.60391Q516.125 224.05704 516.125 224.88516L515.0469 224.88516Q515.0469 223.69766 515.7969 222.97891Q516.5625 222.24454 517.8281 222.24454Q519.03125 222.24454 519.71875 222.86954Q520.40625 223.49454 520.40625 224.54141Q520.40625 225.79141 518.7969 227.54141L516.5156 230.01016L520.7969 230.01016L520.7969 230.90079Z" fill-rule="nonzero"/><path fill="#000000" d="M520.7969 230.90079L515.2031 230.90079L515.2031 230.11954L518.15625 226.83829Q518.8125 226.08829 519.0625 225.63516Q519.3125 225.16641 519.3125 224.66641Q519.3125 223.99454 518.90625 223.57266Q518.5156 223.13516 517.8281 223.13516Q517.03125 223.13516 516.5781 223.60391Q516.125 224.05704 516.125 224.88516L515.0469 224.88516Q515.0469 223.69766 515.7969 222.97891Q516.5625 222.24454 517.8281 222.24454Q519.03125 222.24454 519.71875 222.86954Q520.40625 223.49454 520.40625 224.54141Q520.40625 225.79141 518.7969 227.54141L516.5156 230.01016L520.7969 230.01016L520.7969 230.90079Z" fill-rule="nonzero"/><path fill="#f8db70" d="M789.5625 198.97604Q789.5625 200.8823 788.90625 201.8198Q788.2656 202.74167 786.875 202.74167Q785.5156 202.74167 784.8594 201.83542Q784.2031 200.92917 784.1719 199.11667L784.1719 197.67917Q784.1719 195.78854 784.8125 194.8823Q785.46875 193.96042 786.8594 193.96042Q788.2344 193.96042 788.8906 194.85104Q789.5469 195.72604 789.5625 197.5698L789.5625 198.97604ZM788.46875 197.49167Q788.46875 196.11667 788.0781 195.49167Q787.7031 194.85104 786.8594 194.85104Q786.03125 194.85104 785.6406 195.49167Q785.2656 196.11667 785.2656 197.41354L785.2656 199.14792Q785.2656 200.52292 785.65625 201.1948Q786.0625 201.85104 786.875 201.85104Q787.6719 201.85104 788.0625 201.22604Q788.4531 200.60104 788.46875 199.27292L788.46875 197.49167Z" fill-rule="nonzero"/><path stroke="#cc0000" stroke-width="3.0" stroke-linejoin="round" stroke-linecap="round" d="M246.26562 49.95L245.1875 49.95L245.1875 42.73125L243.0 43.528126L243.0 42.54375L246.10938 41.371876L246.26562 41.371876L246.26562 49.95ZM251.28125 45.153126L252.09375 45.153126Q252.875 45.1375 253.3125 44.746876Q253.75 44.35625 253.75 43.684376Q253.75 42.184376 252.25 42.184376Q251.54688 42.184376 251.125 42.590626Q250.71875 42.996876 250.71875 43.653126L249.625 43.653126Q249.625 42.6375 250.35938 41.965626Q251.10938 41.29375 252.25 41.29375Q253.45312 41.29375 254.14062 41.934376Q254.82812 42.575 254.82812 43.715626Q254.82812 44.278126 254.46875 44.79375Q254.10938 45.309376 253.48438 45.575Q254.1875 45.79375 254.5625 46.309376Q254.95312 46.825 254.95312 47.575Q254.95312 48.715626 254.20312 49.403126Q253.45312 50.075 252.25 50.075Q251.0625 50.075 250.29688 49.41875Q249.54688 48.7625 249.54688 47.7L250.64062 47.7Q250.64062 48.371876 251.07812 48.778126Q251.51562 49.184376 252.26562 49.184376Q253.04688 49.184376 253.45312 48.778126Q253.875 48.35625 253.875 47.590626Q253.875 46.85625 253.42188 46.465626Q252.96875 46.059376 252.09375 46.04375L251.28125 46.04375L251.28125 45.153126Z" fill-rule="nonzero"/><path fill="#ffffff" d="M246.26562 49.95L245.1875 49.95L245.1875 42.73125L243.0 43.528126L243.0 42.54375L246.10938 41.371876L246.26562 41.371876L246.26562 49.95ZM251.28125 45.153126L252.09375 45.153126Q252.875 45.1375 253.3125 44.746876Q253.75 44.35625 253.75 43.684376Q253.75 42.184376 252.25 42.184376Q251.54688 42.184376 251.125 42.590626Q250.71875 42.996876 250.71875 43.653126L249.625 43.653126Q249.625 42.6375 250.35938 41.965626Q251.10938 41.29375 252.25 41.29375Q253.45312 41.29375 254.14062 41.934376Q254.82812 42.575 254.82812 43.715626Q254.82812 44.278126 254.46875 44.79375Q254.10938 45.309376 253.48438 45.575Q254.1875 45.79375 254.5625 46.309376Q254.95312 46.825 254.95312 47.575Q254.95312 48.715626 254.20312 49.403126Q253.45312 50.075 252.25 50.075Q251.0625 50.075 250.29688 49.41875Q249.54688 48.7625 249.54688 47.7L250.64062 47.7Q250.64062 48.371876 251.07812 48.778126Q251.51562 49.184376 252.26562 49.184376Q253.04688 49.184376 253.45312 48.778126Q253.875 48.35625 253.875 47.590626Q253.875 46.85625 253.42188 46.465626Q252.96875 46.059376 252.09375 46.04375L251.28125 46.04375L251.28125 45.153126Z" fill-rule="nonzero"/><path stroke="#cc0000" stroke-width="3.0" stroke-linejoin="round" stroke-linecap="round" d="M517.2969 49.95L511.70312 49.95L511.70312 49.16875L514.65625 45.8875Q515.3125 45.1375 515.5625 44.684376Q515.8125 44.215626 515.8125 43.715626Q515.8125 43.04375 515.40625 42.621876Q515.0156 42.184376 514.3281 42.184376Q513.53125 42.184376 513.0781 42.653126Q512.625 43.10625 512.625 43.934376L511.54688 43.934376Q511.54688 42.746876 512.2969 42.028126Q513.0625 41.29375 514.3281 41.29375Q515.53125 41.29375 516.21875 41.91875Q516.90625 42.54375 516.90625 43.590626Q516.90625 44.840626 515.2969 46.590626L513.0156 49.059376L517.2969 49.059376L517.2969 49.95ZM522.2656 49.95L521.1875 49.95L521.1875 42.73125L519.0 43.528126L519.0 42.54375L522.1094 41.371876L522.2656 41.371876L522.2656 49.95Z" fill-rule="nonzero"/><path fill="#ffffff" d="M517.2969 49.95L511.70312 49.95L511.70312 49.16875L514.65625 45.8875Q515.3125 45.1375 515.5625 44.684376Q515.8125 44.215626 515.8125 43.715626Q515.8125 43.04375 515.40625 42.621876Q515.0156 42.184376 514.3281 42.184376Q513.53125 42.184376 513.0781 42.653126Q512.625 43.10625 512.625 43.934376L511.54688 43.934376Q511.54688 42.746876 512.2969 42.028126Q513.0625 41.29375 514.3281 41.29375Q515.53125 41.29375 516.21875 41.91875Q516.90625 42.54375 516.90625 43.590626Q516.90625 44.840626 515.2969 46.590626L513.0156 49.059376L517.2969 49.059376L517.2969 49.95ZM522.2656 49.95L521.1875 49.95L521.1875 42.73125L519.0 43.528126L519.0 42.54375L522.1094 41.371876L522.2656 41.371876L522.2656 49.95Z" fill-rule="nonzero"/><path stroke="#cc0000" stroke-width="3.0" stroke-linejoin="round" stroke-linecap="round" d="M786.2969 49.95L780.7031 49.95L780.7031 49.16875L783.65625 45.8875Q784.3125 45.1375 784.5625 44.684376Q784.8125 44.215626 784.8125 43.715626Q784.8125 43.04375 784.40625 42.621876Q784.0156 42.184376 783.3281 42.184376Q782.53125 42.184376 782.0781 42.653126Q781.625 43.10625 781.625 43.934376L780.5469 43.934376Q780.5469 42.746876 781.2969 42.028126Q782.0625 41.29375 783.3281 41.29375Q784.53125 41.29375 785.21875 41.91875Q785.90625 42.54375 785.90625 43.590626Q785.90625 44.840626 784.2969 46.590626L782.0156 49.059376L786.2969 49.059376L786.2969 49.95ZM791.2656 49.95L790.1875 49.95L790.1875 42.73125L788.0 43.528126L788.0 42.54375L791.1094 41.371876L791.2656 41.371876L791.2656 49.95Z" fill-rule="nonzero"/><path fill="#ffffff" d="M786.2969 49.95L780.7031 49.95L780.7031 49.16875L783.65625 45.8875Q784.3125 45.1375 784.5625 44.684376Q784.8125 44.215626 784.8125 43.715626Q784.8125 43.04375 784.40625 42.621876Q784.0156 42.184376 783.3281 42.184376Q782.53125 42.184376 782.0781 42.653126Q781.625 43.10625 781.625 43.934376L780.5469 43.934376Q780.5469 42.746876 781.2969 42.028126Q782.0625 41.29375 783.3281 41.29375Q784.53125 41.29375 785.21875 41.91875Q785.90625 42.54375 785.90625 43.590626Q785.90625 44.840626 784.2969 46.590626L782.0156 49.059376L786.2969 49.059376L786.2969 49.95ZM791.2656 49.95L790.1875 49.95L790.1875 42.73125L788.0 43.528126L788.0 42.54375L791.1094 41.371876L791.2656 41.371876L791.2656 49.95Z" fill-rule="nonzero"/><path fill="#000000" d="M47.99375 402.72397Q47.99375 405.06772 47.259377 406.1771Q46.525 407.27084 44.978127 407.27084Q43.4 407.27084 42.665627 406.16147Q41.946877 405.03647 41.946877 402.72397Q41.946877 400.39584 42.68125 399.28647Q43.415627 398.1771 44.978127 398.1771Q46.540627 398.1771 47.259377 399.31772Q47.99375 400.44272 47.99375 402.72397ZM46.446877 405.38022Q46.65 404.89584 46.728127 404.25522Q46.80625 403.6146 46.80625 402.72397Q46.80625 401.83334 46.728127 401.1771Q46.65 400.52084 46.446877 400.0521Q46.24375 399.59897 45.884377 399.38022Q45.525 399.14584 44.978127 399.14584Q44.415627 399.14584 44.05625 399.38022Q43.696877 399.59897 43.49375 400.06772Q43.290627 400.50522 43.2125 401.20834Q43.15 401.89584 43.15 402.72397Q43.15 403.64584 43.2125 404.27084Q43.275 404.88022 43.478127 405.3646Q43.68125 405.81772 44.025 406.06772Q44.384377 406.3021 44.978127 406.3021Q45.525 406.3021 45.884377 406.06772Q46.24375 405.83334 46.446877 405.38022ZM54.3375 400.77084Q54.3375 402.08334 53.775 402.72397Q53.228127 403.3646 52.18125 403.3646Q51.11875 403.3646 50.571877 402.72397Q50.025 402.08334 50.025 400.78647Q50.025 399.47397 50.571877 398.83334Q51.134377 398.19272 52.18125 398.19272Q53.24375 398.19272 53.790627 398.84897Q54.3375 399.4896 54.3375 400.77084ZM58.384377 398.3646L53.80625 407.08334L52.8375 407.08334L57.415627 398.3646L58.384377 398.3646ZM61.196877 404.66147Q61.196877 405.97397 60.634377 406.6146Q60.071877 407.25522 59.040627 407.25522Q57.978127 407.25522 57.43125 406.6146Q56.884377 405.95834 56.884377 404.66147Q56.884377 403.34897 57.43125 402.72397Q57.99375 402.08334 59.040627 402.08334Q60.103127 402.08334 60.65 402.72397Q61.196877 403.34897 61.196877 404.66147ZM53.290627 400.77084Q53.290627 399.77084 53.025 399.38022Q52.759377 398.97397 52.18125 398.97397Q51.5875 398.97397 51.321877 399.38022Q51.071877 399.77084 51.071877 400.78647Q51.071877 401.8021 51.321877 402.19272Q51.5875 402.58334 52.18125 402.58334Q52.759377 402.58334 53.025 402.19272Q53.290627 401.8021 53.290627 400.77084ZM60.15 404.66147Q60.15 403.66147 59.884377 403.27084Q59.634377 402.8646 59.040627 402.8646Q58.446877 402.8646 58.18125 403.27084Q57.93125 403.66147 57.93125 404.66147Q57.93125 405.6771 58.18125 406.08334Q58.446877 406.47397 59.040627 406.47397Q59.634377 406.47397 59.884377 406.08334Q60.15 405.6771 60.15 404.66147Z" fill-rule="nonzero"/><path fill="#000000" d="M39.99375 314.85L34.0875 314.85L34.0875 313.63126Q34.7125 313.1 35.321877 312.56876Q35.946877 312.0375 36.478127 311.52188Q37.603127 310.42813 38.009377 309.7875Q38.43125 309.14688 38.43125 308.39688Q38.43125 307.725 37.978127 307.35Q37.540627 306.95938 36.74375 306.95938Q36.196877 306.95938 35.571877 307.14688Q34.9625 307.33438 34.36875 307.725L34.30625 307.725L34.30625 306.49063Q34.728127 306.2875 35.415627 306.11563Q36.11875 305.94376 36.759377 305.94376Q38.103127 305.94376 38.86875 306.6Q39.634377 307.24063 39.634377 308.35Q39.634377 308.85 39.509377 309.2875Q39.384377 309.70938 39.134377 310.08438Q38.9 310.45938 38.5875 310.81876Q38.290627 311.1625 37.853127 311.58438Q37.228127 312.19376 36.55625 312.77188Q35.884377 313.35 35.30625 313.85L39.99375 313.85L39.99375 314.85ZM47.93125 312.08438Q47.93125 312.69376 47.696877 313.25626Q47.478127 313.80313 47.103127 314.17813Q46.68125 314.58438 46.0875 314.81876Q45.509377 315.0375 44.74375 315.0375Q44.025 315.0375 43.353127 314.88126Q42.696877 314.725 42.24375 314.52188L42.24375 313.2875L42.321877 313.2875Q42.80625 313.58438 43.446877 313.80313Q44.103127 314.02188 44.7125 314.02188Q45.134377 314.02188 45.525 313.9125Q45.915627 313.7875 46.2125 313.49063Q46.478127 313.24063 46.603127 312.89688Q46.74375 312.5375 46.74375 312.06876Q46.74375 311.61563 46.5875 311.31876Q46.43125 311.00626 46.15 310.81876Q45.853127 310.58438 45.415627 310.50626Q44.978127 310.4125 44.43125 310.4125Q43.915627 310.4125 43.43125 310.49063Q42.9625 310.55313 42.61875 310.61563L42.61875 306.13126L47.86875 306.13126L47.86875 307.14688L43.759377 307.14688L43.759377 309.475Q44.009377 309.44376 44.259377 309.44376Q44.525 309.42813 44.728127 309.42813Q45.43125 309.42813 45.9625 309.55313Q46.49375 309.6625 46.946877 309.975Q47.415627 310.2875 47.665627 310.80313Q47.93125 311.30313 47.93125 312.08438ZM54.3375 308.5375Q54.3375 309.85 53.775 310.49063Q53.228127 311.13126 52.18125 311.13126Q51.11875 311.13126 50.571877 310.49063Q50.025 309.85 50.025 308.55313Q50.025 307.24063 50.571877 306.6Q51.134377 305.95938 52.18125 305.95938Q53.24375 305.95938 53.790627 306.61563Q54.3375 307.25626 54.3375 308.5375ZM58.384377 306.13126L53.80625 314.85L52.8375 314.85L57.415627 306.13126L58.384377 306.13126ZM61.196877 312.42813Q61.196877 313.74063 60.634377 314.38126Q60.071877 315.02188 59.040627 315.02188Q57.978127 315.02188 57.43125 314.38126Q56.884377 313.725 56.884377 312.42813Q56.884377 311.11563 57.43125 310.49063Q57.99375 309.85 59.040627 309.85Q60.103127 309.85 60.65 310.49063Q61.196877 311.11563 61.196877 312.42813ZM53.290627 308.5375Q53.290627 307.5375 53.025 307.14688Q52.759377 306.74063 52.18125 306.74063Q51.5875 306.74063 51.321877 307.14688Q51.071877 307.5375 51.071877 308.55313Q51.071877 309.56876 51.321877 309.95938Q51.5875 310.35 52.18125 310.35Q52.759377 310.35 53.025 309.95938Q53.290627 309.56876 53.290627 308.5375ZM60.15 312.42813Q60.15 311.42813 59.884377 311.0375Q59.634377 310.63126 59.040627 310.63126Q58.446877 310.63126 58.18125 311.0375Q57.93125 311.42813 57.93125 312.42813Q57.93125 313.44376 58.18125 313.85Q58.446877 314.24063 59.040627 314.24063Q59.634377 314.24063 59.884377 313.85Q60.15 313.44376 60.15 312.42813Z" fill-rule="nonzero"/><path fill="#000000" d="M39.93125 219.85104Q39.93125 220.46042 39.696877 221.02292Q39.478127 221.5698 39.103127 221.9448Q38.68125 222.35104 38.0875 222.58542Q37.509377 222.80417 36.74375 222.80417Q36.025 222.80417 35.353127 222.64792Q34.696877 222.49167 34.24375 222.28854L34.24375 221.05417L34.321877 221.05417Q34.80625 221.35104 35.446877 221.5698Q36.103127 221.78854 36.7125 221.78854Q37.134377 221.78854 37.525 221.67917Q37.915627 221.55417 38.2125 221.2573Q38.478127 221.0073 38.603127 220.66354Q38.74375 220.30417 38.74375 219.83542Q38.74375 219.3823 38.5875 219.08542Q38.43125 218.77292 38.15 218.58542Q37.853127 218.35104 37.415627 218.27292Q36.978127 218.17917 36.43125 218.17917Q35.915627 218.17917 35.43125 218.2573Q34.9625 218.3198 34.61875 218.3823L34.61875 213.89792L39.86875 213.89792L39.86875 214.91354L35.759377 214.91354L35.759377 217.24167Q36.009377 217.21042 36.259377 217.21042Q36.525 217.1948 36.728127 217.1948Q37.43125 217.1948 37.9625 217.3198Q38.49375 217.42917 38.946877 217.74167Q39.415627 218.05417 39.665627 218.5698Q39.93125 219.0698 39.93125 219.85104ZM47.99375 218.2573Q47.99375 220.60104 47.259377 221.71042Q46.525 222.80417 44.978127 222.80417Q43.4 222.80417 42.665627 221.6948Q41.946877 220.5698 41.946877 218.2573Q41.946877 215.92917 42.68125 214.8198Q43.415627 213.71042 44.978127 213.71042Q46.540627 213.71042 47.259377 214.85104Q47.99375 215.97604 47.99375 218.2573ZM46.446877 220.91354Q46.65 220.42917 46.728127 219.78854Q46.80625 219.14792 46.80625 218.2573Q46.80625 217.36667 46.728127 216.71042Q46.65 216.05417 46.446877 215.58542Q46.24375 215.1323 45.884377 214.91354Q45.525 214.67917 44.978127 214.67917Q44.415627 214.67917 44.05625 214.91354Q43.696877 215.1323 43.49375 215.60104Q43.290627 216.03854 43.2125 216.74167Q43.15 217.42917 43.15 218.2573Q43.15 219.17917 43.2125 219.80417Q43.275 220.41354 43.478127 220.89792Q43.68125 221.35104 44.025 221.60104Q44.384377 221.83542 44.978127 221.83542Q45.525 221.83542 45.884377 221.60104Q46.24375 221.36667 46.446877 220.91354ZM54.3375 216.30417Q54.3375 217.61667 53.775 218.2573Q53.228127 218.89792 52.18125 218.89792Q51.11875 218.89792 50.571877 218.2573Q50.025 217.61667 50.025 216.3198Q50.025 215.0073 50.571877 214.36667Q51.134377 213.72604 52.18125 213.72604Q53.24375 213.72604 53.790627 214.3823Q54.3375 215.02292 54.3375 216.30417ZM58.384377 213.89792L53.80625 222.61667L52.8375 222.61667L57.415627 213.89792L58.384377 213.89792ZM61.196877 220.1948Q61.196877 221.5073 60.634377 222.14792Q60.071877 222.78854 59.040627 222.78854Q57.978127 222.78854 57.43125 222.14792Q56.884377 221.49167 56.884377 220.1948Q56.884377 218.8823 57.43125 218.2573Q57.99375 217.61667 59.040627 217.61667Q60.103127 217.61667 60.65 218.2573Q61.196877 218.8823 61.196877 220.1948ZM53.290627 216.30417Q53.290627 215.30417 53.025 214.91354Q52.759377 214.5073 52.18125 214.5073Q51.5875 214.5073 51.321877 214.91354Q51.071877 215.30417 51.071877 216.3198Q51.071877 217.33542 51.321877 217.72604Q51.5875 218.11667 52.18125 218.11667Q52.759377 218.11667 53.025 217.72604Q53.290627 217.33542 53.290627 216.30417ZM60.15 220.1948Q60.15 219.1948 59.884377 218.80417Q59.634377 218.39792 59.040627 218.39792Q58.446877 218.39792 58.18125 218.80417Q57.93125 219.1948 57.93125 220.1948Q57.93125 221.21042 58.18125 221.61667Q58.446877 222.0073 59.040627 222.0073Q59.634377 222.0073 59.884377 221.61667Q60.15 221.21042 60.15 220.1948Z" fill-rule="nonzero"/><path fill="#000000" d="M40.025 122.96146L36.071877 130.38333L34.821877 130.38333L39.025 122.68021L34.05625 122.68021L34.05625 121.66458L40.025 121.66458L40.025 122.96146ZM47.93125 127.61771Q47.93125 128.22708 47.696877 128.78958Q47.478127 129.33646 47.103127 129.71146Q46.68125 130.1177 46.0875 130.35208Q45.509377 130.57083 44.74375 130.57083Q44.025 130.57083 43.353127 130.41458Q42.696877 130.25833 42.24375 130.0552L42.24375 128.82083L42.321877 128.82083Q42.80625 129.1177 43.446877 129.33646Q44.103127 129.5552 44.7125 129.5552Q45.134377 129.5552 45.525 129.44583Q45.915627 129.32083 46.2125 129.02396Q46.478127 128.77396 46.603127 128.4302Q46.74375 128.07083 46.74375 127.60208Q46.74375 127.14896 46.5875 126.85208Q46.43125 126.53958 46.15 126.35208Q45.853127 126.11771 45.415627 126.03958Q44.978127 125.94583 44.43125 125.94583Q43.915627 125.94583 43.43125 126.02396Q42.9625 126.08646 42.61875 126.14896L42.61875 121.66458L47.86875 121.66458L47.86875 122.68021L43.759377 122.68021L43.759377 125.00833Q44.009377 124.97708 44.259377 124.97708Q44.525 124.96146 44.728127 124.96146Q45.43125 124.96146 45.9625 125.08646Q46.49375 125.19583 46.946877 125.50833Q47.415627 125.82083 47.665627 126.33646Q47.93125 126.83646 47.93125 127.61771ZM54.3375 124.07083Q54.3375 125.38333 53.775 126.02396Q53.228127 126.66458 52.18125 126.66458Q51.11875 126.66458 50.571877 126.02396Q50.025 125.38333 50.025 124.08646Q50.025 122.77396 50.571877 122.13333Q51.134377 121.49271 52.18125 121.49271Q53.24375 121.49271 53.790627 122.14896Q54.3375 122.78958 54.3375 124.07083ZM58.384377 121.66458L53.80625 130.38333L52.8375 130.38333L57.415627 121.66458L58.384377 121.66458ZM61.196877 127.96146Q61.196877 129.27396 60.634377 129.91458Q60.071877 130.5552 59.040627 130.5552Q57.978127 130.5552 57.43125 129.91458Q56.884377 129.25833 56.884377 127.96146Q56.884377 126.64896 57.43125 126.02396Q57.99375 125.38333 59.040627 125.38333Q60.103127 125.38333 60.65 126.02396Q61.196877 126.64896 61.196877 127.96146ZM53.290627 124.07083Q53.290627 123.07083 53.025 122.68021Q52.759377 122.27396 52.18125 122.27396Q51.5875 122.27396 51.321877 122.68021Q51.071877 123.07083 51.071877 124.08646Q51.071877 125.10208 51.321877 125.49271Q51.5875 125.88333 52.18125 125.88333Q52.759377 125.88333 53.025 125.49271Q53.290627 125.10208 53.290627 124.07083ZM60.15 127.96146Q60.15 126.96146 59.884377 126.57083Q59.634377 126.16458 59.040627 126.16458Q58.446877 126.16458 58.18125 126.57083Q57.93125 126.96146 57.93125 127.96146Q57.93125 128.97708 58.18125 129.38333Q58.446877 129.77396 59.040627 129.77396Q59.634377 129.77396 59.884377 129.38333Q60.15 128.97708 60.15 127.96146Z" fill-rule="nonzero"/><path fill="#000000" d="M31.509375 38.15L26.775 38.15L26.775 37.259377L28.603125 37.259377L28.603125 31.415627L26.775 31.415627L26.775 30.618752Q27.15 30.618752 27.571875 30.556252Q27.99375 30.493752 28.2125 30.368752Q28.478125 30.228127 28.634375 30.009377Q28.790625 29.775002 28.80625 29.400002L29.728125 29.400002L29.728125 37.259377L31.509375 37.259377L31.509375 38.15ZM39.99375 33.790627Q39.99375 36.134377 39.259377 37.24375Q38.525 38.3375 36.978127 38.3375Q35.4 38.3375 34.665627 37.228127Q33.946877 36.103127 33.946877 33.790627Q33.946877 31.462502 34.68125 30.353127Q35.415627 29.243752 36.978127 29.243752Q38.540627 29.243752 39.259377 30.384377Q39.99375 31.509377 39.99375 33.790627ZM38.446877 36.446877Q38.65 35.9625 38.728127 35.321877Q38.80625 34.68125 38.80625 33.790627Q38.80625 32.9 38.728127 32.24375Q38.65 31.587502 38.446877 31.118752Q38.24375 30.665627 37.884377 30.446877Q37.525 30.212502 36.978127 30.212502Q36.415627 30.212502 36.05625 30.446877Q35.696877 30.665627 35.49375 31.134377Q35.290627 31.571877 35.2125 32.275Q35.15 32.9625 35.15 33.790627Q35.15 34.7125 35.2125 35.3375Q35.275 35.946877 35.478127 36.43125Q35.68125 36.884377 36.025 37.134377Q36.384377 37.36875 36.978127 37.36875Q37.525 37.36875 37.884377 37.134377Q38.24375 36.9 38.446877 36.446877ZM47.99375 33.790627Q47.99375 36.134377 47.259377 37.24375Q46.525 38.3375 44.978127 38.3375Q43.4 38.3375 42.665627 37.228127Q41.946877 36.103127 41.946877 33.790627Q41.946877 31.462502 42.68125 30.353127Q43.415627 29.243752 44.978127 29.243752Q46.540627 29.243752 47.259377 30.384377Q47.99375 31.509377 47.99375 33.790627ZM46.446877 36.446877Q46.65 35.9625 46.728127 35.321877Q46.80625 34.68125 46.80625 33.790627Q46.80625 32.9 46.728127 32.24375Q46.65 31.587502 46.446877 31.118752Q46.24375 30.665627 45.884377 30.446877Q45.525 30.212502 44.978127 30.212502Q44.415627 30.212502 44.05625 30.446877Q43.696877 30.665627 43.49375 31.134377Q43.290627 31.571877 43.2125 32.275Q43.15 32.9625 43.15 33.790627Q43.15 34.7125 43.2125 35.3375Q43.275 35.946877 43.478127 36.43125Q43.68125 36.884377 44.025 37.134377Q44.384377 37.36875 44.978127 37.36875Q45.525 37.36875 45.884377 37.134377Q46.24375 36.9 46.446877 36.446877ZM54.3375 31.837502Q54.3375 33.15 53.775 33.790627Q53.228127 34.43125 52.18125 34.43125Q51.11875 34.43125 50.571877 33.790627Q50.025 33.15 50.025 31.853127Q50.025 30.540627 50.571877 29.900002Q51.134377 29.259377 52.18125 29.259377Q53.24375 29.259377 53.790627 29.915627Q54.3375 30.556252 54.3375 31.837502ZM58.384377 29.431252L53.80625 38.15L52.8375 38.15L57.415627 29.431252L58.384377 29.431252ZM61.196877 35.728127Q61.196877 37.040627 60.634377 37.68125Q60.071877 38.321877 59.040627 38.321877Q57.978127 38.321877 57.43125 37.68125Q56.884377 37.025 56.884377 35.728127Q56.884377 34.415627 57.43125 33.790627Q57.99375 33.15 59.040627 33.15Q60.103127 33.15 60.65 33.790627Q61.196877 34.415627 61.196877 35.728127ZM53.290627 31.837502Q53.290627 30.837502 53.025 30.446877Q52.759377 30.040627 52.18125 30.040627Q51.5875 30.040627 51.321877 30.446877Q51.071877 30.837502 51.071877 31.853127Q51.071877 32.86875 51.321877 33.259377Q51.5875 33.65 52.18125 33.65Q52.759377 33.65 53.025 33.259377Q53.290627 32.86875 53.290627 31.837502ZM60.15 35.728127Q60.15 34.728127 59.884377 34.3375Q59.634377 33.93125 59.040627 33.93125Q58.446877 33.93125 58.18125 34.3375Q57.93125 34.728127 57.93125 35.728127Q57.93125 36.74375 58.18125 37.15Q58.446877 37.540627 59.040627 37.540627Q59.634377 37.540627 59.884377 37.15Q60.15 36.74375 60.15 35.728127Z" fill-rule="nonzero"/><path fill="#000000" d="M223.02658 433.08334L219.30783 433.08334L219.30783 423.34897L216.6047 429.66147L214.02658 429.66147L211.32346 423.34897L211.32346 433.08334L207.7922 433.08334L207.7922 418.53647L212.15158 418.53647L215.4172 425.83334L218.68283 418.53647L223.02658 418.53647L223.02658 433.08334ZM230.1047 433.08334L226.58908 433.08334L226.58908 422.1146L230.1047 422.1146L230.1047 433.08334ZM230.21408 420.5521L226.49533 420.5521L226.49533 417.88022L230.21408 417.88022L230.21408 420.5521ZM241.5422 425.45834L241.2297 425.45834Q241.01096 425.38022 240.51096 425.34897Q240.01096 425.3021 239.68283 425.3021Q238.93283 425.3021 238.3547 425.41147Q237.77658 425.50522 237.1047 425.7396L237.1047 433.08334L233.58908 433.08334L233.58908 422.1146L237.1047 422.1146L237.1047 423.72397Q238.27658 422.72397 239.13596 422.41147Q239.99533 422.08334 240.71408 422.08334Q240.90158 422.08334 241.13596 422.09897Q241.37033 422.09897 241.5422 422.1146L241.5422 425.45834ZM250.2297 430.22397L250.2297 427.94272Q249.52658 427.9896 248.68283 428.09897Q247.8547 428.19272 247.43283 428.33334Q246.90158 428.50522 246.62033 428.81772Q246.3547 429.13022 246.3547 429.66147Q246.3547 429.9896 246.40158 430.20834Q246.46408 430.4271 246.69846 430.6146Q246.9172 430.81772 247.2297 430.91147Q247.5422 431.00522 248.21408 431.00522Q248.74533 431.00522 249.27658 430.78647Q249.82346 430.56772 250.2297 430.22397ZM250.2297 431.9271Q249.94846 432.13022 249.52658 432.44272Q249.1047 432.7396 248.74533 432.91147Q248.2297 433.14584 247.6672 433.25522Q247.1047 433.38022 246.44846 433.38022Q244.88596 433.38022 243.82346 432.41147Q242.77658 431.44272 242.77658 429.94272Q242.77658 428.7396 243.30783 427.97397Q243.8547 427.20834 244.83908 426.77084Q245.80783 426.33334 247.24533 426.14584Q248.69846 425.95834 250.26096 425.88022L250.26096 425.81772Q250.26096 424.91147 249.51096 424.56772Q248.77658 424.20834 247.32346 424.20834Q246.44846 424.20834 245.46408 424.52084Q244.4797 424.83334 244.05783 424.9896L243.7297 424.9896L243.7297 422.34897Q244.2922 422.20834 245.5422 422.00522Q246.7922 421.8021 248.05783 421.8021Q251.05783 421.8021 252.38596 422.72397Q253.71408 423.64584 253.71408 425.6146L253.71408 433.08334L250.2297 433.08334L250.2297 431.9271ZM267.26096 433.08334L263.74533 433.08334L263.74533 431.94272Q262.83908 432.6771 262.0422 433.03647Q261.24533 433.38022 260.21408 433.38022Q258.21408 433.38022 257.01096 431.84897Q255.80783 430.3021 255.80783 427.6771Q255.80783 426.28647 256.21408 425.20834Q256.62033 424.13022 257.32346 423.34897Q257.99533 422.63022 258.93283 422.22397Q259.88596 421.81772 260.83908 421.81772Q261.82346 421.81772 262.44846 422.03647Q263.07346 422.2396 263.74533 422.5521L263.74533 417.88022L267.26096 417.88022L267.26096 433.08334ZM263.74533 430.0521L263.74533 424.6771Q263.37033 424.52084 262.96408 424.45834Q262.55783 424.38022 262.21408 424.38022Q260.82346 424.38022 260.12033 425.25522Q259.43283 426.1146 259.43283 427.64584Q259.43283 429.25522 259.9797 429.9896Q260.5422 430.70834 261.77658 430.70834Q262.26096 430.70834 262.7922 430.53647Q263.33908 430.34897 263.74533 430.0521ZM281.80783 427.59897Q281.80783 430.3021 280.2297 431.8646Q278.65158 433.4271 275.7922 433.4271Q272.94846 433.4271 271.37033 431.8646Q269.7922 430.3021 269.7922 427.59897Q269.7922 424.88022 271.37033 423.33334Q272.96408 421.77084 275.7922 421.77084Q278.6672 421.77084 280.2297 423.33334Q281.80783 424.89584 281.80783 427.59897ZM277.4797 430.27084Q277.82346 429.84897 277.99533 429.25522Q278.1672 428.66147 278.1672 427.63022Q278.1672 426.66147 277.9797 426.00522Q277.80783 425.34897 277.49533 424.95834Q277.18283 424.5521 276.74533 424.39584Q276.30783 424.22397 275.7922 424.22397Q275.2922 424.22397 274.88596 424.3646Q274.49533 424.50522 274.13596 424.91147Q273.82346 425.28647 273.62033 425.95834Q273.43283 426.6146 273.43283 427.63022Q273.43283 428.52084 273.58908 429.1771Q273.76096 429.83334 274.08908 430.2396Q274.40158 430.6146 274.83908 430.8021Q275.27658 430.97397 275.82346 430.97397Q276.30783 430.97397 276.74533 430.81772Q277.18283 430.64584 277.4797 430.27084ZM292.5422 425.45834L292.2297 425.45834Q292.01096 425.38022 291.51096 425.34897Q291.01096 425.3021 290.68283 425.3021Q289.93283 425.3021 289.3547 425.41147Q288.77658 425.50522 288.1047 425.7396L288.1047 433.08334L284.58908 433.08334L284.58908 422.1146L288.1047 422.1146L288.1047 423.72397Q289.27658 422.72397 290.13596 422.41147Q290.99533 422.08334 291.71408 422.08334Q291.90158 422.08334 292.13596 422.09897Q292.37033 422.09897 292.5422 422.1146L292.5422 425.45834Z" fill-rule="nonzero"/><path fill="#000000" d="M517.09375 427.81772Q517.09375 430.52084 515.4531 431.95834Q513.8125 433.38022 510.60938 433.38022Q507.42188 433.38022 505.78125 431.95834Q504.15625 430.52084 504.15625 427.83334L504.15625 418.53647L507.92188 418.53647L507.92188 427.6146Q507.92188 429.13022 508.54688 429.88022Q509.1875 430.6146 510.60938 430.6146Q512.0156 430.6146 512.6719 429.91147Q513.3281 429.19272 513.3281 427.6146L513.3281 418.53647L517.09375 418.53647L517.09375 427.81772ZM533.5469 418.53647L528.2344 433.08334L524.03125 433.08334L518.7344 418.53647L522.6719 418.53647L526.1875 428.75522L529.7031 418.53647L533.5469 418.53647Z" fill-rule="nonzero"/><path fill="#000000" d="M759.364 433.08334L755.489 433.08334L754.4734 430.14584L749.08276 430.14584L748.08276 433.08334L744.3015 433.08334L749.6765 418.53647L753.989 418.53647L759.364 433.08334ZM753.56714 427.47397L751.7859 422.25522L749.989 427.47397L753.56714 427.47397ZM772.739 433.08334L769.20776 433.08334L769.20776 427.64584Q769.20776 426.97397 769.12964 426.31772Q769.06714 425.66147 768.9109 425.34897Q768.70776 424.9896 768.33276 424.83334Q767.95776 424.66147 767.2859 424.66147Q766.8015 424.66147 766.3015 424.81772Q765.81714 424.97397 765.239 425.3021L765.239 433.08334L761.7234 433.08334L761.7234 422.1146L765.239 422.1146L765.239 423.33334Q766.1765 422.59897 767.0359 422.20834Q767.9109 421.81772 768.95776 421.81772Q770.739 421.81772 771.739 422.84897Q772.739 423.88022 772.739 425.94272L772.739 433.08334ZM786.739 433.08334L783.20776 433.08334L783.20776 427.64584Q783.20776 426.97397 783.12964 426.31772Q783.06714 425.66147 782.9109 425.34897Q782.70776 424.9896 782.33276 424.83334Q781.95776 424.66147 781.2859 424.66147Q780.8015 424.66147 780.3015 424.81772Q779.81714 424.97397 779.239 425.3021L779.239 433.08334L775.7234 433.08334L775.7234 422.1146L779.239 422.1146L779.239 423.33334Q780.1765 422.59897 781.0359 422.20834Q781.9109 421.81772 782.95776 421.81772Q784.739 421.81772 785.739 422.84897Q786.739 423.88022 786.739 425.94272L786.739 433.08334ZM800.94214 427.59897Q800.94214 430.3021 799.364 431.8646Q797.7859 433.4271 794.9265 433.4271Q792.08276 433.4271 790.50464 431.8646Q788.9265 430.3021 788.9265 427.59897Q788.9265 424.88022 790.50464 423.33334Q792.0984 421.77084 794.9265 421.77084Q797.8015 421.77084 799.364 423.33334Q800.94214 424.89584 800.94214 427.59897ZM796.614 430.27084Q796.95776 429.84897 797.12964 429.25522Q797.3015 428.66147 797.3015 427.63022Q797.3015 426.66147 797.114 426.00522Q796.94214 425.34897 796.62964 424.95834Q796.31714 424.5521 795.87964 424.39584Q795.44214 424.22397 794.9265 424.22397Q794.4265 424.22397 794.02026 424.3646Q793.62964 424.50522 793.27026 424.91147Q792.95776 425.28647 792.75464 425.95834Q792.56714 426.6146 792.56714 427.63022Q792.56714 428.52084 792.7234 429.1771Q792.89526 429.83334 793.2234 430.2396Q793.5359 430.6146 793.9734 430.8021Q794.4109 430.97397 794.95776 430.97397Q795.44214 430.97397 795.87964 430.81772Q796.31714 430.64584 796.614 430.27084ZM814.739 433.08334L811.20776 433.08334L811.20776 427.64584Q811.20776 426.97397 811.12964 426.31772Q811.06714 425.66147 810.9109 425.34897Q810.70776 424.9896 810.33276 424.83334Q809.95776 424.66147 809.2859 424.66147Q808.8015 424.66147 808.3015 424.81772Q807.81714 424.97397 807.239 425.3021L807.239 433.08334L803.7234 433.08334L803.7234 422.1146L807.239 422.1146L807.239 423.33334Q808.1765 422.59897 809.0359 422.20834Q809.9109 421.81772 810.95776 421.81772Q812.739 421.81772 813.739 422.84897Q814.739 423.88022 814.739 425.94272L814.739 433.08334ZM824.364 430.22397L824.364 427.94272Q823.6609 427.9896 822.81714 428.09897Q821.989 428.19272 821.56714 428.33334Q821.0359 428.50522 820.75464 428.81772Q820.489 429.13022 820.489 429.66147Q820.489 429.9896 820.5359 430.20834Q820.5984 430.4271 820.83276 430.6146Q821.0515 430.81772 821.364 430.91147Q821.6765 431.00522 822.3484 431.00522Q822.87964 431.00522 823.4109 430.78647Q823.95776 430.56772 824.364 430.22397ZM824.364 431.9271Q824.08276 432.13022 823.6609 432.44272Q823.239 432.7396 822.87964 432.91147Q822.364 433.14584 821.8015 433.25522Q821.239 433.38022 820.58276 433.38022Q819.02026 433.38022 817.95776 432.41147Q816.9109 431.44272 816.9109 429.94272Q816.9109 428.7396 817.44214 427.97397Q817.989 427.20834 818.9734 426.77084Q819.94214 426.33334 821.37964 426.14584Q822.83276 425.95834 824.39526 425.88022L824.39526 425.81772Q824.39526 424.91147 823.64526 424.56772Q822.9109 424.20834 821.45776 424.20834Q820.58276 424.20834 819.5984 424.52084Q818.614 424.83334 818.19214 424.9896L817.864 424.9896L817.864 422.34897Q818.4265 422.20834 819.6765 422.00522Q820.9265 421.8021 822.19214 421.8021Q825.19214 421.8021 826.52026 422.72397Q827.8484 423.64584 827.8484 425.6146L827.8484 433.08334L824.364 433.08334L824.364 431.9271Z" fill-rule="nonzero"/><path fill="#cc0000" d="M394.0 461.35C394.0 460.79773 394.44772 460.35 395.0 460.35L405.0 460.35C405.55228 460.35 406.0 460.79773 406.0 461.35L406.0 471.35C406.0 471.90228 405.55228 472.35 405.0 472.35L395.0 472.35C394.44772 472.35 394.0 471.90228 394.0 471.35Z" fill-rule="nonzero"/><path fill="#1a1a1a" d="M425.75 473.85L423.59375 473.85L417.39062 462.14688L417.39062 473.85L415.76562 473.85L415.76562 460.75626L418.45312 460.75626L424.10938 471.44376L424.10938 460.75626L425.75 460.75626L425.75 473.85ZM437.0 468.94376Q437.0 471.35 435.76562 472.74063Q434.53125 474.11563 432.46875 474.11563Q430.39062 474.11563 429.15625 472.74063Q427.9375 471.35 427.9375 468.94376Q427.9375 466.55313 429.15625 465.1625Q430.39062 463.75626 432.46875 463.75626Q434.53125 463.75626 435.76562 465.1625Q437.0 466.55313 437.0 468.94376ZM435.28125 468.94376Q435.28125 467.0375 434.53125 466.11563Q433.79688 465.17813 432.46875 465.17813Q431.125 465.17813 430.375 466.11563Q429.64062 467.0375 429.64062 468.94376Q429.64062 470.7875 430.375 471.74063Q431.125 472.69376 432.46875 472.69376Q433.78125 472.69376 434.53125 471.75626Q435.28125 470.80313 435.28125 468.94376Z" fill-rule="nonzero"/><path fill="#f8db70" d="M454.0 461.35C454.0 460.79773 454.44772 460.35 455.0 460.35L465.0 460.35C465.55228 460.35 466.0 460.79773 466.0 461.35L466.0 471.35C466.0 471.90228 465.55228 472.35 465.0 472.35L455.0 472.35C454.44772 472.35 454.0 471.90228 454.0 471.35Z" fill-rule="nonzero"/><path fill="#1a1a1a" d="M484.3125 464.725Q484.3125 465.58438 484.01562 466.33438Q483.71875 467.06876 483.17188 467.61563Q482.48438 468.2875 481.5625 468.63126Q480.64062 468.975 479.23438 468.975L477.5 468.975L477.5 473.85L475.76562 473.85L475.76562 460.75626L479.3125 460.75626Q480.48438 460.75626 481.29688 460.95938Q482.125 461.1625 482.75 461.58438Q483.5 462.08438 483.90625 462.83438Q484.3125 463.56876 484.3125 464.725ZM482.51562 464.75626Q482.51562 464.08438 482.26562 463.58438Q482.03125 463.08438 481.54688 462.77188Q481.125 462.49063 480.57812 462.38126Q480.04688 462.25626 479.21875 462.25626L477.5 462.25626L477.5 467.49063L478.96875 467.49063Q480.01562 467.49063 480.67188 467.30313Q481.34375 467.11563 481.75 466.69376Q482.17188 466.27188 482.34375 465.80313Q482.51562 465.33438 482.51562 464.75626ZM494.25 473.85L492.60938 473.85L492.60938 472.80313Q492.39062 472.95938 492.01562 473.225Q491.64062 473.49063 491.29688 473.64688Q490.875 473.85 490.34375 473.975Q489.8125 474.11563 489.09375 474.11563Q487.76562 474.11563 486.84375 473.24063Q485.92188 472.36563 485.92188 471.00626Q485.92188 469.88126 486.39062 469.19376Q486.875 468.50626 487.76562 468.11563Q488.65625 467.70938 489.90625 467.56876Q491.17188 467.42813 492.60938 467.36563L492.60938 467.11563Q492.60938 466.55313 492.40625 466.17813Q492.21875 465.80313 491.84375 465.6Q491.5 465.39688 491.0 465.33438Q490.51562 465.25626 489.96875 465.25626Q489.32812 465.25626 488.51562 465.42813Q487.71875 465.6 486.875 465.92813L486.78125 465.92813L486.78125 464.24063Q487.26562 464.11563 488.17188 463.95938Q489.09375 463.7875 489.98438 463.7875Q491.01562 463.7875 491.78125 463.95938Q492.5625 464.13126 493.125 464.55313Q493.67188 464.95938 493.95312 465.6Q494.25 466.24063 494.25 467.19376L494.25 473.85ZM492.60938 471.42813L492.60938 468.69376Q491.85938 468.74063 490.82812 468.83438Q489.8125 468.9125 489.20312 469.08438Q488.5 469.2875 488.0625 469.725Q487.625 470.14688 487.625 470.88126Q487.625 471.725 488.125 472.1625Q488.64062 472.58438 489.6875 472.58438Q490.5625 472.58438 491.28125 472.25626Q492.0 471.9125 492.60938 471.42813ZM503.75 465.83438L503.67188 465.83438Q503.29688 465.74063 502.9375 465.70938Q502.59375 465.6625 502.125 465.6625Q501.35938 465.6625 500.64062 466.00626Q499.9375 466.35 499.28125 466.88126L499.28125 473.85L497.625 473.85L497.625 464.0375L499.28125 464.0375L499.28125 465.475Q500.26562 464.69376 501.01562 464.36563Q501.76562 464.0375 502.54688 464.0375Q502.98438 464.0375 503.17188 464.05313Q503.35938 464.06876 503.75 464.13126L503.75 465.83438ZM510.71875 473.75626Q510.26562 473.88126 509.70312 473.95938Q509.15625 474.0375 508.73438 474.0375Q507.21875 474.0375 506.4375 473.24063Q505.65625 472.42813 505.65625 470.64688L505.65625 465.42813L504.54688 465.42813L504.54688 464.0375L505.65625 464.0375L505.65625 461.20938L507.3125 461.20938L507.3125 464.0375L510.71875 464.0375L510.71875 465.42813L507.3125 465.42813L507.3125 469.89688Q507.3125 470.6625 507.34375 471.1Q507.39062 471.5375 507.59375 471.9125Q507.78125 472.27188 508.125 472.44376Q508.46875 472.6 509.15625 472.6Q509.5625 472.6 510.0 472.475Q510.4375 472.35 510.64062 472.27188L510.71875 472.27188L510.71875 473.75626ZM514.40625 462.38126L512.53125 462.38126L512.53125 460.67813L514.40625 460.67813L514.40625 462.38126ZM514.2969 473.85L512.6406 473.85L512.6406 464.0375L514.2969 464.0375L514.2969 473.85ZM525.25 473.85L523.6094 473.85L523.6094 472.80313Q523.3906 472.95938 523.0156 473.225Q522.6406 473.49063 522.2969 473.64688Q521.875 473.85 521.34375 473.975Q520.8125 474.11563 520.09375 474.11563Q518.7656 474.11563 517.84375 473.24063Q516.9219 472.36563 516.9219 471.00626Q516.9219 469.88126 517.3906 469.19376Q517.875 468.50626 518.7656 468.11563Q519.65625 467.70938 520.90625 467.56876Q522.1719 467.42813 523.6094 467.36563L523.6094 467.11563Q523.6094 466.55313 523.40625 466.17813Q523.21875 465.80313 522.84375 465.6Q522.5 465.39688 522.0 465.33438Q521.5156 465.25626 520.96875 465.25626Q520.3281 465.25626 519.5156 465.42813Q518.71875 465.6 517.875 465.92813L517.78125 465.92813L517.78125 464.24063Q518.2656 464.11563 519.1719 463.95938Q520.09375 463.7875 520.9844 463.7875Q522.0156 463.7875 522.78125 463.95938Q523.5625 464.13126 524.125 464.55313Q524.6719 464.95938 524.9531 465.6Q525.25 466.24063 525.25 467.19376L525.25 473.85ZM523.6094 471.42813L523.6094 468.69376Q522.8594 468.74063 521.8281 468.83438Q520.8125 468.9125 520.2031 469.08438Q519.5 469.2875 519.0625 469.725Q518.625 470.14688 518.625 470.88126Q518.625 471.725 519.125 472.1625Q519.6406 472.58438 520.6875 472.58438Q521.5625 472.58438 522.28125 472.25626Q523.0 471.9125 523.6094 471.42813ZM530.2969 473.85L528.6406 473.85L528.6406 460.17813L530.2969 460.17813L530.2969 473.85Z" fill-rule="nonzero"/><path fill="#93c47d" d="M548.0 461.35C548.0 460.79773 548.4477 460.35 549.0 460.35L559.0 460.35C559.5523 460.35 560.0 460.79773 560.0 461.35L560.0 471.35C560.0 471.90228 559.5523 472.35 559.0 472.35L549.0 472.35C548.4477 472.35 548.0 471.90228 548.0 471.35Z" fill-rule="nonzero"/><path fill="#1a1a1a" d="M579.0156 460.75626L574.4219 468.11563L574.4219 473.85L572.6719 473.85L572.6719 468.2875L568.0469 460.75626L569.9844 460.75626L573.5625 466.61563L577.1719 460.75626L579.0156 460.75626ZM588.84375 469.11563L581.6094 469.11563Q581.6094 470.02188 581.875 470.69376Q582.15625 471.36563 582.625 471.7875Q583.09375 472.20938 583.71875 472.42813Q584.34375 472.63126 585.09375 472.63126Q586.1094 472.63126 587.1094 472.24063Q588.125 471.83438 588.5625 471.44376L588.65625 471.44376L588.65625 473.25626Q587.8125 473.6 586.9375 473.85Q586.0781 474.08438 585.125 474.08438Q582.6719 474.08438 581.2969 472.75626Q579.9375 471.42813 579.9375 468.99063Q579.9375 466.58438 581.25 465.17813Q582.5625 463.75626 584.7031 463.75626Q586.6875 463.75626 587.7656 464.92813Q588.84375 466.08438 588.84375 468.20938L588.84375 469.11563ZM587.2344 467.85Q587.2344 466.55313 586.5781 465.83438Q585.9375 465.11563 584.6094 465.11563Q583.2969 465.11563 582.5 465.9125Q581.71875 466.69376 581.6094 467.85L587.2344 467.85ZM598.6406 471.02188Q598.6406 472.36563 597.53125 473.225Q596.4219 474.08438 594.4844 474.08438Q593.40625 474.08438 592.4844 473.83438Q591.5781 473.56876 590.96875 473.25626L590.96875 471.4125L591.0625 471.4125Q591.84375 471.99063 592.7969 472.35Q593.75 472.69376 594.625 472.69376Q595.71875 472.69376 596.3281 472.35Q596.9531 471.99063 596.9531 471.225Q596.9531 470.64688 596.625 470.35Q596.28125 470.05313 595.3281 469.83438Q594.9844 469.75626 594.40625 469.6625Q593.84375 469.55313 593.3906 469.42813Q592.09375 469.08438 591.5469 468.42813Q591.0156 467.75626 591.0156 466.7875Q591.0156 466.17813 591.2656 465.64688Q591.5156 465.11563 592.0156 464.69376Q592.5156 464.27188 593.2656 464.0375Q594.03125 463.7875 594.96875 463.7875Q595.8594 463.7875 596.75 464.00626Q597.65625 464.225 598.25 464.5375L598.25 466.30313L598.1719 466.30313Q597.53125 465.83438 596.625 465.52188Q595.71875 465.19376 594.8594 465.19376Q593.9531 465.19376 593.3281 465.5375Q592.7031 465.88126 592.7031 466.56876Q592.7031 467.17813 593.0781 467.49063Q593.4531 467.7875 594.2656 467.99063Q594.7344 468.1 595.2969 468.20938Q595.8594 468.30313 596.2344 468.39688Q597.3906 468.6625 598.0156 469.30313Q598.6406 469.94376 598.6406 471.02188Z" fill-rule="nonzero"/></svg>